<svg height="1080" viewBox="0 0 1080 1080" width="1080" xmlns="http://www.w3.org/2000/svg"><path d="m1075 540.018677c0 295.473511-239.532715 534.998169-534.993713 534.998169-295.473496 0-535.006287-239.524658-535.006287-534.998169 0-295.469177 239.532791-534.997925 535.006287-534.997925 295.460998 0 534.993713 239.528748 534.993713 534.997925z" fill="#fff" stroke="#e1001a" stroke-width="8.372126"/><g stroke="#1a171b"><path d="m978.871704 540.001709c0 242.369263-196.5047 438.86554-438.87793 438.86554-242.373413 0-438.865364-196.496277-438.865364-438.86554 0-242.377563 196.491951-438.877747 438.865364-438.877747 242.37323 0 438.87793 196.500184 438.87793 438.877747z" fill="#1a171b" stroke-width="6.867651"/><path d="m856.129883 540.001709c0 174.582031-141.554321 316.123779-316.132019 316.123779-174.59021 0-316.123596-141.541748-316.123596-316.123779 0-174.594482 141.533386-316.131897 316.123596-316.131897 174.577698 0 316.132019 141.537415 316.132019 316.131897z" fill="#009ddf" stroke-width="4.946909"/><path d="m760.857056 539.993347c0 121.970703-98.888611 220.855042-220.859192 220.855042-121.970398 0-220.854828-98.884339-220.854828-220.855042 0-121.966125 98.88443-220.850708 220.854828-220.850708 121.970581 0 220.859192 98.884583 220.859192 220.850708z" fill="#e1001a" stroke-width="3.456072"/></g><path d="m593.737244 1049.258545-5.69867 3.016968-10.186584 2.111816c-4.084107.238281-7.891907-.123047-11.423523-1.084106-3.531677-.96106-6.620484-2.557373-9.266602-4.789185-2.646118-2.231811-4.780334-5.025146-6.402649-8.380005-1.622314-3.35498-2.561645-7.229492-2.818115-11.623779s.22583-8.351868 1.446899-11.872742c1.22107-3.520874 3.041688-6.544983 5.461976-9.072387 2.420227-2.527466 5.377685-4.515564 8.872436-5.964539 3.494751-1.448914 7.387451-2.298523 11.678406-2.54895 3.412048-.199097 6.547119-.031922 9.405395.501587l7.63031 2.083496-1.275512 6.143677-6.137879-3.843567-4.293884-1.578003c-1.579529-.400574-3.299866-.54657-5.161011-.437989-3.050171.177979-5.851928.83429-8.405273 1.968934-2.553467 1.134582-4.739868 2.779479-6.559387 4.934692-1.819458 2.155212-3.180725 4.828247-4.083924 8.019348-.903076 3.191101-1.229431 6.932007-.979004 11.222961.250367 4.290894 1.009644 7.968384 2.277893 11.032837 1.268128 3.064331 2.931153 5.560913 4.989014 7.489869 2.0578 1.928833 4.420715 3.308227 7.088745 4.138183 2.668091.829834 5.5271 1.155884 8.577271.977783 1.861145-.10852 3.566467-.441528 5.116089-.998779l4.2453-1.920654 6.004883-4.435547zm-82.902192-5.312744 4.065217 5.564453 3.474487 2.010254c1.330749.532959 2.82428.824707 4.480652.875366 1.70813.052246 3.25708-.198242 4.647033-.751587 1.389893-.553223 2.579041-1.319946 3.567505-2.299927.988465-.980102 1.762451-2.148071 2.322083-3.503906.55957-1.355835.863098-2.810181.910583-4.363037.072815-2.380981-.477539-4.288818-1.651184-5.723633-1.173645-1.434692-2.651977-2.64563-4.43518-3.632812l-11.556458-5.832398c-1.776001-1.220093-3.244446-2.754516-4.405395-4.603393-1.161011-1.848877-1.694794-4.300232-1.601349-7.354126.066497-2.174012.515319-4.141968 1.346344-5.903992.831054-1.762024 2.003967-3.267456 3.518737-4.516357 1.514771-1.248902 3.318482-2.20398 5.411072-2.865296 2.092713-.661316 4.432984-.952392 7.021057-.87323 2.484558.07605 4.623536.439392 6.416932 1.090027 1.793457.650696 3.44757 1.620911 4.962402 2.910706l-2.295838 6.457763-.931701-.028503-2.689026-4.822876-2.622803-1.906494c-1.020202-.523438-2.254944-.807251-3.704284-.851624-1.44928-.044311-2.789246.147827-4.019898.576416l-3.243896 1.882508c-.931946.826355-1.661988 1.82727-2.190186 3.002746-.528137 1.175415-.813599 2.461975-.856323 3.859497-.074402 2.4328.475158 4.366516 1.648803 5.801331 1.173645 1.434753 2.651612 2.65863 4.43396 3.671631l11.561219 5.677124c1.778381 1.142456 3.249633 2.586303 4.413757 4.331665 1.164124 1.745361 1.702637 4.041382 1.61554 6.888305-.072815 2.380982-.568726 4.619507-1.487732 6.715577-.919007 2.096069-2.217835 3.908569-3.896607 5.437377-1.678833 1.528809-3.708801 2.684327-6.090088 3.466309-2.381286.781982-5.072937 1.127075-8.075073 1.035278-3.209228-.098266-5.79718-.604858-7.763855-1.519897s-3.606262-1.936646-4.918793-3.064697l1.686585-6.864991zm-44.089416-28.040894 2.299469-19.99646 7.532135 1.102722-5.4646 33.036072-2.265716 19.765869-7.532196-1.102661zm273.867828-52.713989 3.778077 1.425293.856994-.366699-.710022-6.201783-7.909912.173462-12.073486 3.475464c-4.18982 1.792481-7.766175 3.998413-10.729126 6.617859-2.962952 2.619446-5.190064 5.543579-6.681275 8.772583-1.491211 3.228943-2.226074 6.711609-2.204651 10.44812.021424 3.736512.897828 7.628174 2.629151 11.67511 1.792541 4.189819 4.013855 7.604675 6.664123 10.24469 2.650208 2.640015 5.623902 4.522034 8.921082 5.646057 3.29718 1.124085 6.866821 1.469727 10.708923 1.036988 3.842163-.43274 7.881958-1.555542 12.119324-3.368348l9.233948-5.175598 7.602478-5.829345-8.462952-20.374024-6.498962 2.780335 8.097107 18.333923-4.373047 3.898559-6.075989 3.27533c-3.332764 1.425842-6.544373 2.180237-9.634949 2.263306-3.090637.083008-5.964843-.447449-8.622863-1.591553-2.657959-1.144043-5.063904-2.91687-7.217896-5.318604-2.154053-2.401672-3.974487-5.340271-5.461426-8.815979-1.690613-3.951721-2.616516-7.596923-2.777527-10.93573-.161132-3.338806.296387-6.350769 1.372437-9.03601 1.076172-2.685242 2.694214-5.024964 4.854431-7.019348 2.160217-1.994385 4.716187-3.622986 7.668152-4.885865l5.366028-1.577514 5.028625-.292603zm21.424378 3.94989-10.271424-17.219849 24.244874-13.460998 2.262329 4.074707-18.351197 9.033813 9.562012 17.702576 16.125793-9.841675 2.300049 4.142639-16.842163 8.551392 8.977783 16.25 2.21344 3.746582 17.846253-11.063537 2.149231 3.871032-24.584412 13.649536zm28.052551-27.497253 23.994141 36.053222 6.295349-4.279907-14.882202-20.785156 2.441101-1.659546 31.006042 9.823364 7.580139-5.15332-32.362671-9.74646 3.422852-3.876831c1.156311-1.568848 2.070801-3.286377 2.743286-5.152527.672547-1.86615.966919-3.850952.88324-5.954407-.08374-2.103515-.824341-4.182983-2.221863-6.238647-1.310181-1.927165-2.75531-3.292928-4.335388-4.09729-1.580078-.804444-3.249634-1.187866-5.008911-1.15033-1.759155.037537-3.568787.438111-5.429138 1.201905l-20.134827 12.937194zm15.707031 7.215088-2.133911 1.075073-11.580871-17.863403 9.657653-6.518799c1.316407-.550537 2.685425-.839478 4.107178-.8667 1.421814-.027282 2.814331.294068 4.177735.963929 1.363342.669922 2.612792 1.839904 3.748291 3.510132 1.31018 1.927185 1.998596 3.791748 2.065246 5.59375.066589 1.802001-.244934 3.48529-.934509 5.049987-.689636 1.564698-1.649903 2.984558-2.880737 4.259705zm22.656555-34.497254 26.541871 34.221131 5.968933-4.724549-12.828919-15.206665-20.291076-26.63678-5.968872 4.724488zm-183.422241 131.917664 2.056763-.176514-31.794556-49.923889-1.456848.236572-15.283081 57.568787 5.673889-.921387 4.137818-21.526245 9.329284-1.672363 10.069092-1.477784 11.196961 19.036133zm4.993714-35.352234-5.681397-19.309754 7.365723-1.922241 12.236389 48.426514 20.48938-6.390747 1.118042 4.28418-27.734375 7.237792zm37.128784-10.457092-6.885986-18.913758 7.230163-2.382141 5.705505 19.302612 10.994019 31.382081-7.230164 2.38208zm-73.751709 26.707397-4.152832.595703 5.194946-20.832336 11.673279 18.093078zm-190.706024-28.255859-9.722412 42.202148 7.434692 1.635742 4.884338-25.092712 2.882813.634277 14.15744 29.282044 8.951935 1.969604-15.145172-30.215271c1.511189.120361 3.234059.061971 5.168609-.175171 1.93454-.237243 3.810883-.752319 5.62909-1.545349 1.818237-.792969 3.462982-1.942322 4.934234-3.447937 1.471283-1.505615 2.473969-3.47229 3.008057-5.899902.500732-2.27594.500763-4.264282.000061-5.965149-.500702-1.700928-1.368805-3.177735-2.60437-4.430481-1.235535-1.252808-2.769776-2.292908-4.602631-3.120361l-23.232513-5.747681zm-36.030579-11.089966-13.519012 41.266113 26.806884 8.490967 1.336975-4.220947-20.299011-5.370362 1.202423-4.182129 5.642945-17.686706 17.783569 6.366211 1.430817-4.517212-18.229248-4.959229 6.29721-19.109069 19.170777 7.131469 1.407348-4.443115-26.436615-8.373657zm-23.666443 1.913696 6.725495-18.971435 7.092987 2.763916-12.734436 30.969055-6.64087 18.754211-7.092987-2.763855zm65.24173 25.54773-2.24707-.812561 5.028442-20.686524 11.371216 2.541565c1.304382.578613 2.454681 1.375183 3.45105 2.389771.996338 1.014526 1.719299 2.247314 2.168884 3.698364.449615 1.45105.457428 3.162781.023498 5.135254-.500732 2.27594-1.383056 4.056946-2.646972 5.343017-1.263876 1.286174-2.701253 2.216004-4.312134 2.78949-1.61087.573547-3.302338.850952-5.074524.832214zm-92.02713-2.26532 2.584472-.263733 2.473938-4.240173-7.403442.959838-4.643738-.383483-4.957061-1.612244c-2.752594-1.326111-5.093262-2.999939-7.022217-5.021423-1.928925-2.021546-3.324219-4.375123-4.185852-7.060791-.861695-2.685669-1.102448-5.675782-.722321-8.970337.380158-3.294556 1.503021-6.877869 3.368591-10.750122 1.86557-3.872193 3.968171-6.983521 6.307709-9.334046 2.339569-2.350525 4.828003-4.025696 7.465363-5.025635 2.637329-.999939 5.347503-1.375549 8.130584-1.126892 2.783051.248719 5.550812 1.036072 8.303345 2.362244 1.679535.809143 3.112274 1.772522 4.298371 2.890015l2.986602 3.465148 3.497864 6.341248 4.099335-4.750366-5.657288-5.527893c-2.239166-1.854798-4.898315-3.523926-7.977417-5.007447-3.872223-1.8656-7.687561-3.013977-11.446075-3.44519-3.758545-.431213-7.309387-.130127-10.65268.90332-3.343292 1.033448-6.403747 2.792298-9.181396 5.276612-2.77771 2.484375-5.121765 5.709228-7.032318 9.674804-1.910553 3.965516-2.97168 7.808533-3.183441 11.529114-.211762 3.72052.296722 7.198914 1.525512 10.435059 1.228729 3.236206 3.153076 6.13208 5.773133 8.687744 2.620025 2.555664 5.772827 4.721313 9.458465 6.497009l5.170868 1.973877zm-60.758698-68.761536 10.009552-17.462952 20.054108 13.062073c1.459259 1.383728 2.566528 2.870178 3.321869 4.459351.75534 1.589233 1.089996 3.269287 1.004059 5.040222-.085999 1.770935-.73935 3.648926-1.960053 5.633972-1.302124 2.117371-2.895294 3.645386-4.779571 4.583985-1.884308.938659-3.815338 1.483703-5.793183 1.635314-1.977844.151571-3.919281.021546-5.82431-.390075l-4.939209-1.532776 4.376465 33.513916-7.80777-4.801514-3.750214-32.308044-2.514343-1.546265-12.85791 22.094727-6.484405-3.987671zm-28.085693 21.196533 1.542648 1.371704 14.378006-57.415649-1.173614-.894897-52.304199 28.495788 4.570922 3.485474 18.473267-11.800049 7.630005 5.622742 7.997574 6.293762-6.119477 21.220154zm31.192108-14.088379 8.78241 5.218506c1.667663.599976 3.356384.893799 5.066223.881409 1.709869-.01239 3.372955-.418335 4.989258-1.217773 1.616333-.799439 3.034851-2.191712 4.255554-4.176697 1.057983-1.720398 1.613007-3.339661 1.665131-4.857849.052124-1.51825-.225647-2.920105-.833313-4.205689-.607666-1.285583-1.432404-2.415954-2.474213-3.390991l-9.904816-6.136658zm-39.076385-22.010498-3.288453-2.605224 18.696396-10.555359-5.107208 20.917541z" fill="#1a1918" fill-rule="evenodd"/><path d="m558.12854 24.475708 19.094543 44.320435 26.147278-40.993409 1.007141.074097 2.364624 54.695374-7.282104-.535523-.873413-40.020691-12.079102 18.62262c-3.907287 6.177368-7.668579 12.664001-11.283874 19.460022l-.697205-.05127-17.15332-41.062134-6.641052 39.46814-5.422791-.398804 11.502319-53.675659zm-79.830017 31.149902c-.300476-4.391479.142181-8.353637 1.327911-11.886474 1.1857-3.532959 2.975983-6.575073 5.370789-9.126709 2.394836-2.551514 5.332214-4.569214 8.812256-6.052979 3.480041-1.484009 7.338257-2.370727 11.574798-2.660644 4.288178-.293335 8.25708.058105 11.9068 1.054077 3.649719.996094 6.834533 2.594971 9.554504 4.796509 2.720032 2.20166 4.907898 4.971679 6.563721 8.31018 1.655884 3.338501 2.633972 7.203492 2.934387 11.594971.300476 4.391541-.142151 8.353699-1.327881 11.886597-1.18573 3.532959-2.976013 6.575134-5.370788 9.126648-2.394837 2.551574-5.3349 4.530456-8.820252 5.936828-3.485351 1.406372-7.372009 2.256226-11.660217 2.549561-4.236542.289856-8.176941-.024475-11.82135-.943054-3.644379-.918641-6.826569-2.478638-9.54657-4.680237-2.720001-2.20166-4.907868-4.97168-6.563751-8.310242-1.655823-3.338501-2.633942-7.20343-2.934357-11.595032zm50.4505-3.451416c-.293396-4.288208-1.089416-7.958007-2.388244-11.009521s-2.986756-5.531372-5.063782-7.439575-4.453674-3.263794-7.129883-4.067017c-2.676239-.803101-5.538421-1.100342-8.58667-.891846-2.996582.205078-5.765777.887574-8.307678 2.04773-2.541931 1.160156-4.711761 2.826782-6.509582 5.000122-1.797791 2.17334-3.132264 4.859863-4.003357 8.059814-.871155 3.199952-1.160004 6.94397-.866639 11.232178.293396 4.288208 1.089447 7.958008 2.388276 11.009461 1.298797 3.051513 2.986724 5.531311 5.063751 7.439575 2.077057 1.908203 4.453674 3.263855 7.129913 4.067016 2.676239.803101 5.512604 1.102173 8.509125.897156 3.048279-.208557 5.843262-.892883 8.385193-2.052978 2.541931-1.160157 4.711792-2.826844 6.509582-5.000184 1.797791-2.173278 3.132264-4.859924 4.003357-8.059814.871094-3.199951 1.160034-6.94397.866638-11.232117zm-56.55014 28.238465-5.240082 3.757446-9.809173 3.465149c-4.01471.786499-7.836518.941589-11.465454.465149-3.628907-.476319-6.904694-1.641968-9.827393-3.496826-2.922699-1.854859-5.413818-4.335083-7.47345-7.440857-2.05957-3.105652-3.512512-6.81836-4.358764-11.138001-.846222-4.319702-.901612-8.306091-.166138-11.959411.735504-3.653321 2.132019-6.895142 4.189636-9.725708 2.057587-2.830445 4.720154-5.198975 7.987793-7.105591 3.267578-1.906616 7.010376-3.273071 11.228394-4.099488 3.354095-.656982 6.483123-.913818 9.387207-.770385l7.841461 1.036377-.436005 6.259521-6.599823-2.981445-4.467315-.984985c-1.619172-.184083-3.343476-.096924-5.172974.261474-2.998352.587402-5.686127 1.615235-8.063324 3.083618-2.377258 1.468262-4.322083 3.392823-5.834595 5.77356-1.512451 2.380615-2.501098 5.21289-2.966003 8.49646-.464905 3.283691-.28418 7.034485.542145 11.252502.826355 4.218018 2.074249 7.759766 3.743805 10.625244 1.669525 2.86554 3.653747 5.115235 5.952789 6.749329 2.298981 1.634033 4.826202 2.682434 7.581756 3.145264 2.755524.462829 5.632477.400451 8.630829-.18689 1.829499-.358459 3.474427-.918152 4.934845-1.679199l3.947724-2.47522 5.352447-5.204163zm-82.606049 20.051635c-.374267-1.130737-.28189-2.252258.277192-3.364624.559112-1.112426 1.404022-1.855835 2.534729-2.230102 1.130737-.374329 2.252319-.281922 3.364715.277161 1.112396.559082 1.855774 1.403991 2.230042 2.534729.374328 1.130737.269714 2.215454-.313782 3.254089-.583496 1.038696-1.440613 1.745117-2.57135 2.119446-1.130737.374328-2.240082.318847-3.328095-.166565-1.087982-.485352-1.819122-1.293396-2.193451-2.424134zm-63.65628-6.351196-8.492645-18.248901 21.563873-9.236511c4.189056-1.794312 8.005585-2.781189 11.449707-2.960694 3.444122-.179504 6.551483.334473 9.322144 1.541992 2.77069 1.20752 5.223297 3.086426 7.35791 5.636841 2.134613 2.550354 3.986908 5.658142 5.556946 9.323609 2.03897 4.760192 2.935638 9.122375 2.690032 13.086608-.245605 3.964295-1.213531 7.491395-2.90393 10.581604-1.690338 3.090088-3.892273 5.70929-6.605835 7.857483-2.713532 2.148133-5.474548 3.823731-8.283112 5.026734l-19.136169 8.196655-7.258392-18.524048zm11.115601 9.773438 6.912323 14.954101 9.659759-3.292541c2.618134-1.12146 5.103729-2.552246 7.456787-4.292542 2.353058-1.740295 4.197907-3.910705 5.534638-6.511352 1.33667-2.600647 2.022338-5.668946 2.057067-9.204712.034699-3.53595-.957214-7.660157-2.97583-12.372803-1.773895-4.141479-3.743469-7.325806-5.908752-9.553162s-4.471771-3.732299-6.919556-4.51477c-2.447754-.78241-5.036682-.94104-7.766906-.47583-2.730225.465271-5.570954 1.329956-8.522339 2.594116l-10.690277 5.424011 5.902526 14.964112zm-19.909302 28.42395c-.559998-1.051209-.658447-2.172302-.29538-3.363159.363068-1.190918 1.070221-2.066346 2.121399-2.626343 1.051239-.559998 2.172272-.658447 3.363159-.29541 1.190918.363159 2.066345 1.070312 2.626343 2.12146.559967 1.051208.640198 2.138.24057 3.260315-.399597 1.122314-1.124969 1.963501-2.176208 2.523498-1.051209.559937-2.153992.692688-3.30835.398255-1.154388-.294617-2.011536-.967408-2.571533-2.018616zm-51.495056 32.565674c-.691437-.969849-.934266-2.068604-.728455-3.296509.20575-1.227905.793549-2.187561 1.763367-2.878967.969848-.691468 2.068664-.934266 3.29657-.728516 1.227905.205811 2.187561.79364 2.878967 1.763428.691406.969848.911682 2.037048.660858 3.20166-.250885 1.164673-.861237 2.092651-1.831055 2.784119-.969848.691406-2.046142.965881-3.228943.823303-1.182769-.142456-2.119873-.69867-2.811309-1.668518zm592.372833 37.44342 1.476379 1.442871 17.064942-56.675171-1.130188-.949157-53.587647 26.002014 4.401734 3.696655 19.008361-10.917297 7.356812 5.975769 7.692383 6.663208-7.111634 20.908569zm-6.176209-36.429993-3.162109-2.75708 19.172607-9.663513-6.086303 20.653931zm-17.793945-37.646423-25.509827 34.997253 6.195618 4.423096 11.048462-16.545593 19.958435-26.886963-6.195618-4.423035zm-39.135071 26.441101-12.138-56.716125-20.755432 36.185913-4.820069-2.836731 15.404297-23.11145 13.379883-23.040894 1.071106.630432 12.559448 56.152893 20.266968-35.662109 4.418396 2.600281-14.269653 21.796203-14.179749 24.553162zm-35.952148-74.339905 1.588196 3.712464.857971.36438 3.9823-4.807129-5.602906-5.58606-10.868408-6.302917c-4.19458-1.781128-8.262634-2.833496-12.204223-3.156922-3.94159-.323486-7.593384.094971-10.955384 1.25531-3.36206 1.160401-6.383362 3.042054-9.064026 5.645142-2.680725 2.603088-4.881164 5.930359-6.601623 9.981995-1.78125 4.194702-2.70636 8.161987-2.775452 11.902099-.069214 3.740174.632507 7.18866 2.104981 10.345703 1.472473 3.156983 3.69519 5.971436 6.66809 8.443543 2.973023 2.471985 6.580506 4.608703 10.822876 6.410095l10.128357 3.077209 9.470093 1.447388 8.836975-20.21466-6.506408-2.762818-7.618653 18.537842-5.840759-.454834-6.570557-2.114929c-3.33667-1.41687-6.10498-3.211304-8.305237-5.383301-2.200195-2.171997-3.807861-4.612854-4.823303-7.322632-1.015381-2.709778-1.402649-5.673096-1.161804-8.890259.240906-3.217163 1.100098-6.565429 2.577637-10.045105 1.679992-3.956298 3.668518-7.148559 5.965576-9.576904 2.296997-2.428467 4.786682-4.184265 7.468994-5.267578s5.490845-1.536377 8.425537-1.359131c2.934754.177246 5.8797.893311 8.834961 2.148193l4.854126 2.778565 3.693543 3.424988zm-63.616577 23.916138 1.932617.725403-7.220764-58.746277-1.416809-.41333-38.565796 45.391846 5.518249 1.609497 12.997071-17.65149 9.141235 2.504334 9.725281 2.998352 1.916992 22.001587zm-69.447571-61.674805-8.572571 42.450684 7.476318 1.433227 3.937806-23.842895 12.546386 2.009644c2.442932.046447 4.83191-.312867 7.166809-1.078003 2.3349-.765198 4.426941-2.051453 6.276185-3.858826 1.849243-1.807373 3.09552-4.389465 3.739013-7.746155.409465-2.136068.447978-3.987386.11554-5.553955-.332459-1.566406-.901978-2.927856-1.708496-4.084228-.806458-1.156617-1.771302-2.10608-2.89441-2.848633l-6.940368-2.991333-19.667969-3.849366zm49.114624 30.822449-4.005066-1.249023 13.652771-16.570252 2.752808 21.355286zm-40.359314-12.336975-5.299561-1.64856 4.343384-22.657836 12.125855 2.759399c1.523071.581909 2.758117 1.359253 3.705383 2.331665.947266.972534 1.59436 2.203979 1.941467 3.694092.347046 1.490234.310974 3.328735-.108276 5.515747-.497192 2.593913-1.349243 4.631999-2.556152 6.114258-1.20691 1.482299-2.599793 2.559814-4.178833 3.232666-1.57898.672729-3.241822 1.026245-4.988404 1.060547zm-375.169403 112.093079 1.677002-1.203797-52.856781-26.635376-1.130783.948487 16.314346 57.285034 4.404144-3.693909-7.455307-20.613647 7.161042-6.208985 7.896331-6.420227 19.358384 10.629944zm-36.949082-.235413-3.263732 2.636108-6.192017-20.557983 19.285385 9.575928zm60.121872-24.336182-2.912658-1.531128-.79245.490784 2.385284 6.654602c1.717255.215637 3.648346.161743 5.793244-.16156 2.144897-.323303 4.582122-1.330261 7.311767-3.020752 2.553497-1.581421 4.606842-3.355652 6.160156-5.322693 1.553284-1.967102 2.607544-4.051391 3.162751-6.253112.555175-2.201661.637024-4.429993.245544-6.684937-.39151-2.254944-1.214355-4.39502-2.468597-6.420227-1.499665-2.421448-3.216645-4.038147-5.151062-4.850342-1.934388-.812012-3.958313-1.203247-6.071839-1.173462l-12.773468 1.652161c-2.045349.139831-3.953399-.064209-5.724182-.612183-1.770813-.547912-3.296966-1.856506-4.578461-3.92572-.736206-1.18866-1.208709-2.418884-1.417633-3.690491-.208862-1.271606-.153015-2.509216.167542-3.712829l1.664673-3.36084 3.032898-2.700684c1.232727-.763488 2.418853-1.20874 3.55841-1.335754l3.239472.140869 4.905304 2.535584.79245-.490845-1.652497-6.65155c-1.975189-.238648-3.889953-.133973-5.744476.314025-1.854462.448121-3.838287 1.326477-5.951538 2.635254-2.201325 1.363343-3.991577 2.898438-5.370911 4.60553-1.379333 1.706991-2.355529 3.499349-2.928589 5.377075-.573089 1.877747-.719513 3.780518-.439209 5.708374.280335 1.927918.993042 3.816407 2.138245 5.665528 1.608704 2.597534 3.407532 4.346374 5.396423 5.24646 1.988953.900207 4.060578 1.368469 6.215027 1.404724l12.855255-1.520142c2.031739-.161804 3.932923.03125 5.703736.579163 1.770813.547912 3.283325 1.834533 4.537567 3.859741.817993 1.32074 1.368133 2.700806 1.650452 4.140137.282287 1.439392.282012 2.840515-.000763 4.20343-.282776 1.362976-.850739 2.658813-1.703888 3.887695-.853119 1.228821-2.006104 2.293213-3.458954 3.192932-1.408814.872559-2.815094 1.454102-4.218811 1.744812l-4.006775.242981z" fill="#1a1918" fill-rule="evenodd"/><path d="m587.938538 159.242004-.948792-1.658874 9.564697-2.570252-3.596252 26.24292-3.617127-.495666 3.524537-23.430237zm-26.524842 5.973816.861634-5.134094c.433715-1.589722 1.051696-2.957642 1.853759-4.103577.802185-1.145935 1.811402-2.029296 3.02771-2.650085 1.216248-.620728 2.663391-.866638 4.341492-.737854 1.858826.142822 3.348206.614258 4.468384 1.414368 1.120178.800171 1.969787 1.826294 2.548828 3.078308.57904 1.252014.92926 2.694153 1.050659 4.326599l-.960815 10.22937-1.970032 4.094604c-.828919 1.156922-1.838074 2.040284-3.027588 2.650086-1.189392.609802-2.571594.854309-4.146362.733398-1.858887-.142761-3.349793-.594848-4.472901-1.356262-1.123108-.761413-1.974182-1.768188-2.553283-3.020202-.57898-1.252015-.9292-2.694214-1.050598-4.3266zm3.175415.243836.617798 8.695068c.38147 1.120056.92273 2.018555 1.623841 2.695679.70111.677063 1.606689 1.058227 2.716857 1.143493 1.110108.085206 2.063294-.153198 2.859559-.715271.796203-.562133 1.468383-1.367492 2.016296-2.416137l1.28186-3.757935.731568-9.526367-.693055-3.909607-1.62384-2.695618c-.701111-.677124-1.606689-1.058288-2.716858-1.143493-1.110107-.085266-2.06134.12738-2.853576.637878-.792298.510376-1.461487 1.2771-2.007447 2.299805zm-25.55542-.761414.557373-5.175964c.339173-1.61261.875367-3.014465 1.608521-4.205811.733154-1.191223 1.688477-2.132568 2.866089-2.823974 1.17749-.691468 2.607605-1.022278 4.290405-.992615 1.864014.032837 3.378662.415588 4.544067 1.148315 1.165406.732727 2.074036 1.70691 2.725892 2.922547.651916 1.215759 1.086547 2.634704 1.304016 4.257141l-.355774 10.268249-1.725037 4.203675c-.759277 1.203796-1.714599 2.145141-2.866089 2.824096-1.151367.678894-2.516662 1.004395-4.095886.976563-1.864014-.032837-3.379028-.396179-4.545105-1.090027-1.166077-.693909-2.075073-1.648682-2.726929-2.86438-.651916-1.215698-1.086547-2.634704-1.304016-4.25708zm3.184327.056153 1.129516 8.643493c.446839 1.09552 1.040222 1.960571 1.780029 2.595215.739808.63446 1.666321.961609 2.779541.981201 1.113221.019654 2.05066-.274536 2.812378-.88269.76178-.608155 1.385193-1.45166 1.870362-2.530762l1.43341-8.598389-1.129516-8.643493c-.446839-1.09552-1.040222-1.960633-1.78003-2.595215-.739807-.634522-1.66632-.961609-2.779541-.981201-1.11322-.019654-2.050231.248657-2.811035.805053-.760803.556275-1.383545 1.361023-1.868286 2.414307zm-7.07721 2.628601.070374 2.406982-9.666809.282715-.070435-2.406983zm-16.981872 3.494262c-.15033-1.962158-.679566-3.531616-1.587769-4.708557-.908203-1.17688-2.188416-1.702026-3.840698-1.575439l-2.073456.645752-2.579285 3.70343-.219787 2.72406 1.842437 4.727905 3.821351 1.576966 2.150939-.651734 1.50177-1.497864zm-1.510987-17.179321-4.696319.729858-1.999359 1.867127-2.26709 5.490784-.391907 5.56134 2.111328-2.693726 3.913147-1.546264 4.931091 1.063415 2.164978 2.073914c.61438.900757.977906 2.086914 1.090638 3.558532l-.328736 3.589356-1.512634 2.881592-2.577271 1.950317-3.516784.87323-3.257233-.315246c-1.061371-.295289-2.019379-.851624-2.874054-1.669068-.854645-.817383-1.568237-1.911865-2.140777-3.283325-.57251-1.371399-.93686-3.076843-1.09314-5.116455-.164185-2.142822-.06723-4.182251.290832-6.118347.358033-1.936219.967194-3.644776 1.827546-5.126038.860351-1.481201 1.976287-2.67688 3.347839-3.586914 1.371521-.910156 2.987671-1.423462 4.848511-1.5401l1.635376-.008484.675781 1.194763zm-35.549499 15.81427-.241303-5.200317c.08844-1.645447.403717-3.112854.945923-4.402405.542267-1.289368 1.342285-2.365845 2.400147-3.229309 1.057861-.863465 2.420532-1.409302 4.088012-1.637512 1.847046-.252808 3.402497-.106263 4.66626.439453 1.263794.545715 2.310822 1.369384 3.141052 2.471008.830261 1.101624 1.476959 2.437378 1.940094 4.007385l1.219818 10.201721-1.061401 4.418213c-.566132 1.305786-1.36618 2.382202-2.400116 3.229309-1.033966.847107-2.333374 1.377808-3.898224 1.59198-1.847107.252808-3.399872.12555-4.658386-.381713-1.258545-.507203-2.302887-1.311707-3.133179-2.41327-.83023-1.101623-1.476898-2.437438-1.940094-4.007385zm3.155395-.431763 2.438996 8.368775c.609222 1.014343 1.327911 1.77832 2.156128 2.292175.828247.513916 1.793884.695374 2.896972.544434 1.10315-.151001 1.984497-.585266 2.644226-1.302735.659699-.717529 1.146668-1.646545 1.460999-2.787231l.459869-3.943848-1.295532-9.466125-1.502625-3.675293-2.156158-2.292176c-.828217-.513916-1.793884-.695312-2.896973-.544311-1.103119.15094-1.987976.559509-2.654724 1.225647-.666717.66626-1.158966 1.556885-1.476806 2.671875z" fill="#fffefe" fill-rule="evenodd"/><g stroke="#1a171b"><path d="m1075 539.997681c0 295.469177-239.532715 534.997924-534.993713 534.997924-295.473496 0-535.006287-239.528747-535.006287-534.997924 0-295.473511 239.532791-534.997681 535.006287-534.997681 295.460998 0 534.993713 239.52417 534.993713 534.997681z" fill="none" stroke-width="8.372126"/><path d="m650.750061 539.997681c0 61.162353-49.589966 110.751953-110.752197 110.751953-61.166352 0-110.74762-49.5896-110.74762-110.751953 0-61.162171 49.581268-110.752198 110.74762-110.752198 61.162231 0 110.752197 49.590027 110.752197 110.752198z" fill="#ffeb00" stroke-width="1.733096"/><g fill="#fefefe" stroke-linejoin="round" stroke-width="6.114152"><path d="m405.582611 207.657288-28.408661-1.97229-46.016052 661.191406 28.412903 1.971985z"/><path d="m674.417419 207.657288 28.408631-1.97229 46.011841 661.191406-28.408631 1.971985z"/></g></g><path d="m768.198486 378.72876h-450.791748c-1.542602-1.066162-3.721252-2.103089-8.492004-2.12378-5.992645-.034118-11.985474 4.808228-12.912659 6.156861.927185 1.352661 6.920014 6.195007 12.912659 6.161194 4.770752-.020996 6.949402-1.057556 8.492004-2.12378h450.791748c3.118531.509827 10.211243.948059 15.365296-.316162.830383-.210876.295044-.809204-.160034-1.188537-1.778626-1.441223-6.726075-1.352478-6.726075-2.532715 0-1.188355 4.947449-1.099854 6.726075-2.536987.455078-.370972.990417-.9693.160034-1.179993-5.154053-1.264221-12.246765-.825928-15.365296-.316101z" fill="#1a171b"/><path d="m767.473694 384.81427c-.918762 5.520691-1.319214 8.753113-7.939819 11.416504-6.86084 2.764648-26.326905.257019-43.184021-11.416504z" fill="#fefefe" stroke="#1a171b" stroke-linecap="round" stroke-linejoin="round" stroke-width="4.186052"/><path d="m767.473694 380.713928c-.918762-5.520813-1.319214-8.753296-7.939819-11.416992-6.86084-2.764343-26.326905-.256958-43.184021 11.416992z" fill="#fefefe" stroke="#1a171b" stroke-linecap="round" stroke-linejoin="round" stroke-width="4.186052"/><path d="m297.477081 456.82843h479.432343c1.546631-1.070434 3.729553-2.1073 8.491699-2.12854 5.997009-.033569 11.993958 4.808777 12.917053 6.161438-.923095 1.348633-6.920044 6.190735-12.917053 6.157166-4.762146-.020996-6.945068-1.057618-8.491699-2.124085h-479.432343c-3.11853.510132-10.211181.948425-15.365356-.316101-.830078-.206543-.294983-.809204.160309-1.188354 1.778412-1.441162 6.726074-1.352967 6.726074-2.528626 0-1.188293-4.947662-1.104126-6.726074-2.541077-.455292-.370971-.990387-.969604-.160309-1.175964 5.154175-1.26416 12.246826-.8302 15.365356-.315857z" fill="#1a171b"/><path d="m298.202087 462.909485c.918763 5.520874 1.319001 8.753357 7.939789 11.420837 6.860901 2.760559 26.322541.252869 43.179749-11.420837z" fill="#fefefe" stroke="#1a171b" stroke-linecap="round" stroke-linejoin="round" stroke-width="4.186052"/><path d="m298.202087 458.808899c.918763-5.52063 1.319001-8.752808 7.939789-11.416504 6.860901-2.764343 26.322541-.257019 43.179749 11.416504z" fill="#fefefe" stroke="#1a171b" stroke-linecap="round" stroke-linejoin="round" stroke-width="4.186052"/><path d="m286.313477 613.006226h501.763977c1.538208-1.06189 3.725219-2.102845 8.487548-2.124024 5.996949-.033691 11.989624 4.812744 12.916748 6.157349-.927124 1.352783-6.919799 6.194824-12.916748 6.165527-4.762329-.021301-6.94934-1.062256-8.487548-2.124023h-501.763977c-3.114289.505676-10.207154.943969-15.365418-.320435-.825989-.210693-.290619-.809021.164459-1.184265 1.778321-1.441223 6.726013-1.352722 6.726013-2.536804 0-1.179993-4.947692-1.091675-6.726013-2.532959-.455078-.370972-.990448-.973389-.164459-1.175659 5.158264-1.264527 12.251129-.830445 15.365418-.324707z" fill="#1a171b"/><path d="m287.038422 619.091797c.922882 5.52478 1.31903 8.753296 7.943939 11.424805 6.86084 2.760559 26.31839.252929 43.179687-11.424805z" fill="#fefefe" stroke="#1a171b" stroke-linecap="round" stroke-linejoin="round" stroke-width="4.186052"/><path d="m287.038422 614.995483c.922882-5.520629 1.31903-8.753418 7.943939-11.416504 6.86084-2.768737 26.31839-.26123 43.179687 11.416504z" fill="#fefefe" stroke="#1a171b" stroke-linecap="round" stroke-linejoin="round" stroke-width="4.186052"/><path d="m785.300171 534.915283h-484.995148c-1.542602-1.066162-3.725586-2.102966-8.492004-2.124267-5.996948-.033631-11.98526 4.808471-12.912445 6.161499.927185 1.348632 6.915497 6.190735 12.912445 6.157043 4.766418-.021179 6.949402-1.057556 8.492004-2.123962h484.995148c3.114258.510009 10.20697.948303 15.365356-.315857.82605-.210938.290711-.809265-.164367-1.188599-1.778382-1.441284-6.726136-1.352966-6.726136-2.528625 0-1.188599 4.947754-1.104126 6.726136-2.541077.455078-.371033.990417-.969605.164367-1.175964-5.158386-1.26825-12.251098-.830201-15.365356-.320191z" fill="#1a171b"/><path d="m784.575195 541.00061c-.922851 5.520874-1.31903 8.753296-7.943908 11.416565-6.86084 2.764771-26.314026.257141-43.179688-11.416565z" fill="#fefefe" stroke="#1a171b" stroke-linecap="round" stroke-linejoin="round" stroke-width="4.186052"/><path d="m784.575195 536.899963c-.922851-5.520568-1.31903-8.75299-7.943908-11.416442-6.86084-2.764405-26.314026-.256958-43.179688 11.416442z" fill="#fefefe" stroke="#1a171b" stroke-linecap="round" stroke-linejoin="round" stroke-width="4.186052"/><path d="m787.512695 691.097351h-489.415924c-1.542572-1.061951-3.721405-2.102783-8.491913-2.123962-5.996978-.033692-11.985534 4.812744-12.912719 6.157348.927185 1.352661 6.915741 6.195069 12.912719 6.165406 4.770508-.021241 6.949341-1.062134 8.491913-2.123902h489.415924c3.118653.505676 10.206848.943726 15.365357-.324829.825989-.206299.294983-.804687-.16449-1.179932-1.77832-1.441223-6.725952-1.352722-6.725952-2.536743 0-1.180298 4.947632-1.096069 6.725952-2.532959.459473-.370727.990479-.977783.16449-1.176025-5.158509-1.26416-12.246704-.8302-15.365357-.324402z" fill="#1a171b"/><path d="m786.78772 697.182983c-.922913 5.520508-1.319092 8.752991-7.943909 11.416443-6.860901 2.768616-26.314148.261292-43.17981-11.416443z" fill="#fefefe" stroke="#1a171b" stroke-linecap="round" stroke-linejoin="round" stroke-width="4.186052"/><path d="m786.78772 693.086548c-.922913-5.525147-1.319092-8.753052-7.943909-11.420777-6.860901-2.764587-26.314148-.256958-43.17981 11.420777z" fill="#fefefe" stroke="#1a171b" stroke-linecap="round" stroke-linejoin="round" stroke-width="4.186052"/></svg>