<svg height="1080" viewBox="0 0 1080 1080" width="1080" xmlns="http://www.w3.org/2000/svg"><path d="m0 830c-0 138.071167 111.92881 250 250 250h580c138.071167 0 250-111.928833 250-250v-580c0-138.071167-111.928833-250-250-250h-580c-138.07119 0-250 111.928833-250 250z" fill-rule="evenodd"/><g fill="#e0e0e0"><path d="m156.358459 903.327148v-19.481933c0-17.613037 0-35.220459 0-52.833496 0-26.029297 0-52.058472 0-78.087769 0-31.841308 0-63.682739 0-95.524048 0-34.684814 0-69.363891 0-104.048645 0-34.684753 0-70.383789 0-105.575683 0-32.633423 0-65.266846 0-97.905945 0-27.721619 0-55.443176 0-83.164856 0-19.823914 0-39.647827 0-59.471741v-29.487976c0-11.031677-9.869232-21.527771-21.197189-20.974975-11.453331.564148-20.974968 9.396301-20.974968 21.197143v72.315552 78.087646 95.524109 479.64917c0 11.031616 9.869232 21.52771 21.197197 20.974976 11.453324-.564087 20.97496-9.39624 20.97496-21.197205z"/><path d="m514.232056 595.899475v-401.077087c0-5.453125.068359-10.90625 0-16.359436 0-.239319 0-.478577 0-.717896 0-11.031677-9.869263-21.527771-21.197205-20.974975-11.453339.564148-20.974945 9.396301-20.974945 21.197143v401.077088c0 5.453186-.06839 10.90625 0 16.359497v.717895c0 11.031738 9.869232 21.52771 21.197174 20.974976 11.453308-.564087 20.974976-9.396241 20.974976-21.197205z"/><path d="m493.25708 617.09668c11.031677 0 21.527649-9.869141 20.974976-21.197205-.564148-11.453308-9.396302-20.974914-21.197205-20.974914-11.031677 0-21.52771 9.869262-20.974945 21.197143.564117 11.453369 9.39624 20.974976 21.197174 20.974976z"/><path d="m514.232056 903.327148v-202.957397c0-9.396179.170959-18.80957 0-28.200195 0-.136841 0-.27356 0-.416077 0-11.031555-9.869263-21.527649-21.197205-20.974915-11.453339.564148-20.974945 9.396363-20.974945 21.197205v202.957398c0 9.396301-.170959 18.809753 0 28.200317v.415954c0 11.031617 9.869232 21.52771 21.197174 20.974915 11.453308-.564148 20.974976-9.396301 20.974976-21.197205z"/><path d="m116.949921 188.303711c5.943176 9.031616 11.892074 18.068848 17.835266 27.100525 14.273926 21.687256 28.542129 43.374389 42.81607 65.061706 17.202759 26.143189 34.41124 52.286377 51.614014 78.435303 14.872208 22.604614 29.744446 45.203552 44.622345 67.808167 7.248077 11.020324 14.416382 22.097534 21.755646 33.055114.102569.15387.199432.30774.302002.461548 3.128265 4.75232 7.367736 8.496033 13.008911 9.966065 4.906097 1.276428 11.390655.655334 15.755432-2.091187 9.162659-5.760864 14.347992-18.929321 7.874878-28.764343-5.943207-9.031616-11.892059-18.068909-17.835266-27.100525-14.273926-21.687195-28.542145-43.374451-42.816071-65.061707-17.202774-26.143188-34.411239-52.286377-51.614029-78.435241-14.872207-22.604676-29.74443-45.203675-44.62236-67.808228-7.248062-11.020325-14.416367-22.097595-21.7556-33.055115-.102585-.153808-.199448-.307678-.302002-.461547-3.128311-4.752259-7.367737-8.496033-13.008942-9.966126-4.906112-1.276367-11.390625-.655273-15.755432 2.091248-9.162658 5.760864-14.347984 18.929321-7.874862 28.764343z"/><path d="m474.886169 167.317383c-5.943206 9.031616-11.892089 18.068847-17.835296 27.100464-14.273895 21.687256-28.542114 43.37445-42.81604 65.061706-17.20279 26.143128-34.411225 52.286438-51.614014 78.435242-14.872223 22.604736-29.744446 45.203674-44.622375 67.808227-7.242371 11.008912-14.752533 21.892395-21.755616 33.055115-.096862.15387-.199432.307739-.302002.461609-6.074249 9.231018-1.988678 23.761353 7.715332 28.798523 10.638459 5.521545 22.29123 2.171021 28.798554-7.715271 5.943207-9.031677 11.89209-18.06897 17.835266-27.100586 14.273926-21.687256 28.542114-43.374451 42.816071-65.061645 17.202789-26.143189 34.411224-52.286377 51.613983-78.435364 14.872253-22.604614 29.744476-45.203491 44.622406-67.808167 7.24237-11.008789 14.752563-21.892456 21.755645-33.055114.096833-.153809.199402-.307679.301972-.461487 6.074249-9.231079 1.988678-23.761414-7.715332-28.798584-10.638519-5.521546-22.291229-2.171021-28.798554 7.715332z"/><path d="m493.25708 924.524353h235.362915c10.855042 0 21.732849.182373 32.58783 0h.45581c11.031739 0 21.52771-9.869202 20.974976-21.197205-.564087-11.453247-9.39624-20.974853-21.197144-20.974853h-235.362915c-10.85498 0-21.732849-.182434-32.58786 0-.153869 0-.307709 0-.455841 0-11.031677 0-21.52771 9.869141-20.974945 21.197143.564117 11.453248 9.39624 20.974915 21.197174 20.974915z"/><path d="m761.669373 561.739014c7.692504.017028 15.362243.495666 22.992126 1.441589l-5.424622-.678101c15.818055 2.034241 31.282959 6.114197 46.041138 12.154236-1.743591-.718017-3.487305-1.435913-5.230835-2.148193 14.849365 6.154053 28.809876 14.228271 41.568054 24.006409-1.492859-1.151062-2.985778-2.302063-4.478759-3.453186 12.826599 9.920532 24.285644 21.47644 34.097839 34.377075-1.09967-1.453003-2.199463-2.906006-3.299133-4.359131 9.373413 12.433472 17.140014 25.989441 23.100341 40.377319l-2.045654-4.985901c5.840637 14.273865 9.852173 29.208802 11.949036 44.485596-.239319-1.783508-.478638-3.56134-.723694-5.34491 2.096985 15.772583 2.165344 31.750245.2052 47.545533l.678101-5.424561c-2.034302 15.818054-6.114136 31.282898-12.154236 46.04126.717956-1.743775 1.435974-3.487366 2.148254-5.230957-6.154113 14.849365-14.228393 28.809936-24.006408 41.568115l3.453064-4.478821c-9.920533 12.826599-21.47638 24.285584-34.377076 34.097901 1.453064-1.099793 2.906128-2.199585 4.359131-3.299256-12.433471 9.373413-25.98938 17.140015-40.377258 23.100403l4.985901-2.045715c-14.273926 5.840698-29.208862 9.852173-44.485596 11.949157 1.783569-.239379 3.56134-.478698 5.34491-.723693-8.142761 1.08258-16.336731 1.629638-24.54773 1.646789-11.031738.022705-21.52771 9.852051-20.974975 21.197144.564148 11.436218 9.39624 20.997741 21.197143 20.974914 40.873047-.091125 82.15625-12.575805 115.519043-36.365722 8.78656-6.262268 17.265381-12.986084 25.037781-20.479126 7.772278-7.493164 14.763916-15.852356 21.373779-24.496521 12.359314-16.159973 21.624573-34.097779 28.644776-53.169556 14.330871-38.929871 15.510376-83.159119 4.210937-123.006409-10.929138-38.553833-33.619201-74.298462-64.605835-99.83197-8.38208-6.906189-17.157226-13.4021-26.479431-18.997742-9.419067-5.658264-19.311096-10.199646-29.476685-14.342224-19.214233-7.829284-39.431335-12.097229-60.092834-13.715515-4.780823-.376037-9.572998-.552734-14.365051-.558411-11.031677-.022827-21.52771 9.886292-20.975037 21.197205.564087 11.476074 9.396301 20.946472 21.197205 20.974976z"/><path d="m761.669373 198.947876c7.692504.01709 15.362243.495728 22.992126 1.44165l-5.424622-.678039c15.818055 2.034241 31.282959 6.114075 46.041138 12.154175l-5.230835-2.148255c14.849365 6.154114 28.809876 14.228333 41.568054 24.006409-1.492859-1.151001-2.985778-2.302002-4.478759-3.453064 12.826599 9.920471 24.285644 21.476379 34.097839 34.377075-1.09967-1.453125-2.199463-2.906128-3.299133-4.359131 9.373413 12.433472 17.140014 25.989319 23.100341 40.377198l-2.045654-4.985901c5.840637 14.273986 9.852173 29.208862 11.949036 44.485656-.239319-1.783569-.478638-3.56134-.723694-5.344909 2.096985 15.772522 2.165344 31.750244.2052 47.545532.227905-1.806274.450134-3.618347.678101-5.424622-2.034302 15.818055-6.114136 31.282898-12.154236 46.041199l2.148254-5.230896c-6.154113 14.849426-14.228393 28.809937-24.006408 41.568115l3.453064-4.478759c-9.920533 12.826599-21.47638 24.285583-34.377076 34.097839l4.359131-3.299255c-12.433471 9.373535-25.98938 17.140136-40.377258 23.100402l4.985901-2.045654c-14.273926 5.840637-29.208862 9.852112-44.485596 11.949097l5.34491-.723694c-8.142761 1.082642-16.336731 1.629639-24.54773 1.646789-11.031738.022767-21.52771 9.852112-20.974975 21.197205.564148 11.436218 9.39624 20.997742 21.197143 20.974976 40.873047-.091248 82.15625-12.575928 115.519043-36.365723 8.78656-6.262329 17.265381-12.986145 25.037781-20.479248 7.846374-7.561462 14.763916-15.852295 21.373779-24.49646 12.359314-16.159973 21.624573-34.097839 28.644776-53.169617 14.330871-38.92987 15.510376-83.159057 4.210937-123.006408-10.929138-38.553772-33.619201-74.298401-64.605835-99.83191-8.38208-6.906189-17.157226-13.402099-26.479431-18.99768-9.419067-5.658264-19.311096-10.199768-29.476685-14.342285-19.214233-7.829346-39.431335-12.097229-60.092834-13.715454-4.780823-.37616-9.572998-.552857-14.365051-.558533-11.031677-.022705-21.52771 9.886413-20.975037 21.197204.564087 11.476197 9.396301 20.946534 21.197205 20.974976z"/><path d="m761.441467 156.775696h-49.072632c-26.0578 0-52.109802 0-78.167541 0h-17.880798c-11.031678 0-21.52771 9.869262-20.975037 21.197204.564087 11.45337 9.396301 20.974976 21.197205 20.974976h145.115295c11.031677 0 21.52771-9.869202 20.974976-21.197144-.564148-11.453369-9.396302-20.975036-21.197144-20.975036z"/></g></svg>