<svg height="1080" viewBox="0 0 1080 1080" width="1080" xmlns="http://www.w3.org/2000/svg"><g fill="#ededed"><path d="m52.803326 1001.342285v-24.753479c0-22.378906 0-44.750732 0-67.129639 0-33.072509 0-66.144836 0-99.217346 0-40.457214 0-80.91455 0-121.371765 0-44.070129 0-88.132934 0-132.202942 0-44.070068 0-89.428833 0-134.143249 0-41.463623 0-82.927246 0-124.398133 0-35.222778 0-70.445434 0-105.668274 0-25.188049 0-50.376037 0-75.564086v-37.467041c0-14.016724-12.539727-27.352967-26.932896-26.650574-14.552466.716797-26.650546 11.938843-26.650546 26.9328v91.883301 99.217224 121.371826 609.436524c0 14.016662 12.53973 27.352905 26.932908 26.650634 14.552458-.716796 26.650534-11.938781 26.650534-26.932983z"/><path d="m507.513275 610.728333v-509.60376c0-6.928711.086853-13.857361 0-20.786133 0-.304077 0-.608093 0-.912109 0-14.016724-12.539764-27.352967-26.932922-26.650574-14.55246.716797-26.650513 11.938843-26.650513 26.9328v509.603821c0 6.928711-.086883 13.857361 0 20.786194v.91217c0 14.016724 12.539734 27.352783 26.932892 26.650513 14.552429-.716675 26.650543-11.938721 26.650543-26.932922z"/><path d="m480.862732 637.661255c14.016693 0 27.352753-12.539612 26.650543-26.932922-.716797-14.55243-11.938843-26.650452-26.932922-26.650452-14.016724 0-27.352844 12.539795-26.650513 26.932861.716766 14.55249 11.938751 26.650513 26.932892 26.650513z"/><path d="m507.513275 1001.342285v-257.875244c0-11.93866.217224-23.899231 0-35.830811 0-.173889 0-.347595 0-.528686 0-14.016602-12.539764-27.352783-26.932922-26.650513-14.55246.716797-26.650513 11.938965-26.650513 26.932984v257.875244c0 11.938843-.217224 23.899414 0 35.830993v.528504c0 14.016601 12.539734 27.352783 26.932892 26.650513 14.552429-.716797 26.650543-11.938904 26.650543-26.932984z"/><path d="m2.731305 92.84198c7.55133 11.475464 15.109929 22.958069 22.661277 34.433655 18.13628 27.555542 36.265293 55.110962 54.401592 82.666626 21.85762 33.217224 43.722511 66.434448 65.580155 99.658935 18.896453 28.721192 37.792938 57.43512 56.696624 86.15625 9.20932 14.00232 18.317276 28.076905 27.642456 41.999451.130326.195496.253403.390991.383728.586426 3.974732 6.038269 9.361359 10.794983 16.528962 12.662781 6.233642 1.621826 14.472839.832641 20.018676-2.657044 11.641968-7.319702 18.230378-24.051392 10.005707-36.547607-7.551361-11.475464-15.109894-22.958191-22.66127-34.433655-18.136276-27.555481-36.265305-55.111023-54.401581-82.666626-21.857651-33.217224-43.722519-66.434448-65.580185-99.658875-18.896446-28.721252-37.792915-57.435241-56.696632-86.156311-9.209305-14.002319-18.317265-28.076965-27.64241-41.99945-.130341-.195435-.253415-.390931-.383721-.586426-3.974792-6.038208-9.361358-10.794983-16.529007-12.662903-6.233648-1.621704-14.472791-.832519-20.018664 2.657166-11.641965 7.319702-18.230379 24.051391-10.005707 36.547607z"/><path d="m457.520874 66.177002c-7.551392 11.475464-15.109955 22.958069-22.661346 34.433533-18.136231 27.555603-36.265259 55.111084-54.401551 82.666626-21.857635 33.217163-43.722473 66.43457-65.580139 99.658935-18.896484 28.721314-37.792938 57.435242-56.696655 86.156311-9.202072 13.987793-18.7444 27.816223-27.642441 41.999451-.123062.195496-.253387.390991-.383713.586487-7.717865 11.728821-2.526794 30.190918 9.803009 36.591064 13.517105 7.015625 28.322968 2.758484 36.591095-9.802917 7.551361-11.475525 15.109955-22.958252 22.661286-34.433716 18.136291-27.555542 36.265258-55.111023 54.401581-82.666504 21.857666-33.217224 43.722503-66.434448 65.580108-99.659058 18.896515-28.721191 37.792999-57.435058 56.696716-86.15625 9.202057-13.987671 18.744416-27.816284 27.642457-41.99945.123046-.195435.253356-.390931.383697-.586365 7.717865-11.728882 2.526794-30.190979-9.803009-36.591126-13.517181-7.015625-28.322968-2.758422-36.591095 9.802979z"/><path d="m480.862732 1028.275269h299.049316c13.792298 0 27.613526.231689 41.405701 0h.579163c14.016784 0 27.352844-12.539734 26.650573-26.932984-.716735-14.552368-11.938781-26.65039-26.932861-26.65039h-299.049316c-13.792237 0-27.613526-.231812-41.405762 0-.195496 0-.390961 0-.579193 0-14.016724 0-27.352844 12.539611-26.650513 26.932861.716766 14.552368 11.938751 26.650513 26.932892 26.650513z"/><path d="m821.904175 567.324463c9.774048.021667 19.519104.629822 29.213562 1.831665l-6.892456-.861572c20.098205 2.584716 39.747741 7.768615 58.499328 15.442993-2.215393-.912232-4.430969-1.824463-6.64624-2.729431 18.867432 7.819275 36.605469 18.078308 52.815857 30.502258-1.896789-1.462524-3.793701-2.924988-5.690674-4.387573 16.297364 12.604858 30.857056 27.287719 43.324341 43.679077-1.397217-1.846192-2.794617-3.692322-4.191833-5.538635 11.909729 15.79779 21.777893 33.02185 29.351013 51.302917l-2.599182-6.335022c7.42102 18.13617 12.518005 37.112366 15.182251 56.522888-.304017-2.266113-.608094-4.525024-.919495-6.791198 2.664368 20.040466 2.751282 40.341491.260742 60.410827l.861633-6.892395c-2.584838 20.098206-7.768615 39.747681-15.443054 58.499451.912171-2.215576 1.824524-4.430969 2.729492-6.646362-7.819335 18.867431-18.07843 36.605529-30.502258 52.815918l4.387451-5.690735c-12.604919 16.297363-27.287658 30.856994-43.679077 43.324402 1.846192-1.397339 3.692444-2.794739 5.538635-4.192017-15.797851 11.90979-33.021789 21.777954-51.302856 29.351135l6.335022-2.599304c-18.136292 7.421143-37.112427 12.518066-56.522888 15.182495 2.266174-.304138 4.525024-.608215 6.791199-.919495-10.346131 1.375489-20.757264 2.070557-31.190064 2.092347-14.016785.028869-27.352844 12.517944-26.650574 26.932861.716797 14.530701 11.938782 26.679443 26.932862 26.650513 51.9328-.115845 104.386779-15.978699 146.777099-46.205872 11.164124-7.956787 21.937195-16.5 31.812744-26.020569 9.875367-9.520691 18.75885-20.141784 27.157288-31.125 15.703613-20.532654 27.475952-43.324218 36.39563-67.556579 18.20874-49.463806 19.707397-105.66095 5.350464-156.290467-13.886475-48.986084-42.716187-94.402771-82.087464-126.845337-10.650146-8.774902-21.799743-17.028564-33.64447-24.138305-11.967712-7.189331-24.536438-12.959534-37.452698-18.223084-24.413391-9.947754-50.101013-15.370544-76.353271-17.426758-6.074402-.477783-12.16333-.70227-18.252014-.709472-14.016724-.029053-27.352845 12.561401-26.650635 26.932861.716675 14.58136 11.938782 26.61438 26.932922 26.650574z"/><path d="m821.904175 106.366333c9.774048.021729 19.519104.629883 29.213562 1.831787l-6.892456-.861511c20.098205 2.584656 39.747741 7.768433 58.499328 15.442932l-6.64624-2.729553c18.867432 7.819336 36.605469 18.078369 52.815857 30.502258-1.896789-1.462463-3.793701-2.924866-5.690674-4.38739 16.297364 12.604797 30.857056 27.287598 43.324341 43.679077-1.397217-1.846313-2.794617-3.692505-4.191833-5.538635 11.909729 15.79779 21.777893 33.021667 29.351013 51.302734l-2.599182-6.335022c7.42102 18.136353 12.518005 37.112427 15.182251 56.522949-.304017-2.266174-.608094-4.524963-.919495-6.791137 2.664368 20.040344 2.751282 40.341491.260742 60.410766.289551-2.295044.571961-4.597412.861633-6.892456-2.584838 20.098206-7.768615 39.747681-15.443054 58.49939l2.729492-6.646301c-7.819335 18.867492-18.07843 36.605591-30.502258 52.815979l4.387451-5.690674c-12.604919 16.297302-27.287658 30.856933-43.679077 43.32428l5.538635-4.191956c-15.797851 11.909912-33.021789 21.778015-51.302856 29.351074l6.335022-2.599182c-18.136292 7.421021-37.112427 12.518006-56.522888 15.182373l6.791199-.919494c-10.346131 1.375549-20.757264 2.070556-31.190064 2.092407-14.016785.028869-27.352844 12.517944-26.650574 26.932861.716797 14.530762 11.938782 26.679505 26.932862 26.650574 51.9328-.115906 104.386779-15.978821 146.777099-46.205872 11.164124-7.956848 21.937195-16.5 31.812744-26.020691 9.969483-9.607483 18.75885-20.141723 27.157288-31.124878 15.703613-20.532653 27.475952-43.32434 36.39563-67.556701 18.20874-49.463806 19.707397-105.660889 5.350464-156.290467-13.886475-48.985961-42.716187-94.402648-82.087464-126.845275-10.650146-8.774903-21.799743-17.028504-33.64447-24.138184-11.967712-7.189331-24.536438-12.959717-37.452698-18.223145-24.413391-9.947875-50.101013-15.370666-76.353271-17.426696-6.074402-.477906-12.16333-.702515-18.252014-.709717-14.016724-.028809-27.352845 12.561584-26.650635 26.932983.716675 14.581482 11.938782 26.61438 26.932922 26.650513z"/><path d="m821.614624 52.782837h-62.351135c-33.108704 0-66.210083 0-99.318726 0h-22.719116c-14.016724 0-27.352844 12.539795-26.650635 26.932983.716736 14.552491 11.938843 26.650513 26.932923 26.650513h184.381774c14.016724 0 27.352845-12.539673 26.650513-26.9328-.716797-14.552552-11.938782-26.650696-26.9328-26.650696z"/></g></svg>