<svg height="1080" viewBox="0 0 1080 1080" width="1080" xmlns="http://www.w3.org/2000/svg"><g fill-rule="evenodd"><path d="m1066.700317 1005.008179c0-41.780457-235.878845-75.650269-526.850158-75.650269-290.971314 0-526.850159 33.869812-526.850159 75.650269 0 41.780517 235.878845 75.650268 526.850159 75.650268 290.971313 0 526.850158-33.869751 526.850158-75.650268z" fill="#048c00"/><path d="m271.601807 881.457947 36.199401-29.411988v-33.936889l-36.199401-38.461853z" fill="#a36400" stroke="#000" stroke-linecap="round" stroke-linejoin="round" stroke-width="5.656151"/><path d="m246.714737 881.457947h24.88707v-133.670593l-24.88707-20.176697z" fill="#a36400" stroke="#000" stroke-linecap="round" stroke-linejoin="round" stroke-width="5.656151"/><path d="m101.917274 1004.30957 45.249215-33.258178s23.290329-82.980774 40.724289-138.010071c18.711502-59.061829 45.249206-131.222779 45.249206-131.222779l-11.312302-27.149475s-36.992584 92.855835-63.348892 153.847351c-24.810653 57.414612-56.561516 175.793152-56.561516 175.793152z" fill="#a36400" stroke="#000" stroke-linecap="round" stroke-linejoin="round" stroke-width="5.656151"/><path d="m58.930527 1004.30957h40.724289s37.45935-119.975464 56.561508-171.268249c21.622131-58.059509 65.611358-158.372254 65.611358-158.372254l-9.04985-24.887085s-59.617187 117.74292-85.973495 178.734436c-24.810647 57.414612-67.87381 175.793152-67.87381 175.793152z" fill="#a36400" stroke="#000" stroke-linecap="round" stroke-linejoin="round" stroke-width="5.656151"/><path d="m724.093872 496.839661c-79.623962-218.200928-215.78241-381.99231-349.323883-326.246765-35.781281 14.936462-69.204315 35.364807-96.380768 50.226623-33.215698 18.16449-69.853805 26.297791-76.923736 40.724182-56.912674 116.134033-45.688065 291.358399 16.063507 428.283814 73.639465 163.285278 85.367187 184.06311 167.195831 270.816589 31.381317 33.269959 42.328918 37.894959 119.910431 27.149475 25.50293-3.532287 60.674499-6.538147 92.760864-4.524902 24.548828 1.540283 57.603272-1.244568 76.923645-4.524903 144.369324-24.512207 119.959473-289.568603 49.774109-481.904113z" fill="#d5d5d5" stroke="#000" stroke-linecap="round" stroke-linejoin="round" stroke-width="5.656151"/><path d="m724.07312 503.874512c-80.791992-222.184449-223.55542-374.150452-318.871246-339.425598-95.315582 34.72528-107.089569 242.991455-26.297791 465.176086 80.79184 222.184448 223.555207 374.150391 318.871247 339.425354 95.315612-34.725098 107.089355-242.991394 26.29779-465.175842z" fill="#fff" stroke="#000" stroke-linecap="round" stroke-linejoin="round" stroke-width="5.656151"/><path d="m689.556213 516.449524c-64.633606-177.747559-178.84436-299.320313-255.097015-271.540466-76.252472 27.780212-85.671631 194.393188-21.038208 372.140869 64.633453 177.747558 178.844208 299.320312 255.096954 271.540283 76.252503-27.780029 85.671509-194.393189 21.038269-372.140686z" fill="#1a171b"/><path d="m655.039307 529.024597c-48.475281-133.310669-134.13324-224.490234-191.322724-203.655395-57.189392 20.835205-64.253784 145.794861-15.778717 279.105652 48.475128 133.310668 134.133179 224.490234 191.322754 203.655273 57.189331-20.835083 64.253662-145.794861 15.778687-279.10553z" fill="#009ddf"/><path d="m620.522339 541.599609c-32.316773-88.873779-89.422119-149.660156-127.548432-135.770202-38.126251 13.890075-42.835845 97.196533-10.519134 186.070373 32.316711 88.87378 89.422058 149.660218 127.548523 135.770142 38.126221-13.890015 42.835754-97.196533 10.519043-186.070313z" fill="#e1001a"/><path d="m586.005493 554.064087c-16.158447-44.436829-44.71112-74.830017-63.774292-67.885071-19.06311 6.945068-21.417877 48.598328-5.259521 93.035217 16.158325 44.43689 44.711059 74.830079 63.774292 67.88501 19.063049-6.944946 21.417846-48.598266 5.259521-93.035156z" fill="#ffeb00"/><g stroke="#000" stroke-linecap="round" stroke-linejoin="round"><path d="m367.484558 913.96936 55.883606-61.473083 28.96936 4.755432-50.833191 54.554871zm-7.222381-10.328491 55.105072-60.187927-2.11084-30.186463-55.838806 57.0224z" fill="#e1001a" stroke-width="2.701796"/><path d="m237.519211 1056.88269 198.088058-217.801452-7.743377-8.008423-206.555451 225.809875z" fill="#fff" stroke-width="2.701796"/><path d="m948.091492 863.434082 60.035583-57.42511 28.567017 6.764649-54.514893 50.876098zm-6.484314-10.80719 59.169311-56.197327v-30.260131l-59.680481 52.988403z" fill="#e1001a" stroke-width="2.701796"/><path d="m806.263733 998.545227 215.008423-205.064819-7.165894-8.529114-224.069824 213.572571z" fill="#fff" stroke-width="2.701796"/><path d="m597.395142 46.346924 49.693786-15.901978 18.664917 13.755982-52.456665 16.060241zm-1.960389-8.237427 49.827759-15.477051 7.399231-21.973999-52.181701 16.932251z" fill="#e1001a" stroke-width="1.98775"/><path d="m264.228394 149.7099 397.549926-123.24054-1.987793-7.950927-399.537628 123.240417z" fill="#fff" stroke-width="1.98775"/><path d="m266.216125 119.893677-45.718215 39.754944 57.64476-1.987732-13.914276-13.914246z" fill="#646464" stroke-width="1.98775"/></g></g></svg>